<svg xmlns="http://www.w3.org/2000/svg" viewBox="0 0 249.67 283.51"><defs><style>.cls-1{fill:none;stroke:#c1c1c1;stroke-miterlimit:10;stroke-width:5px;}</style></defs><g id="Layer_2" data-name="Layer 2"><g id="Layer_1-2" data-name="Layer 1"><polygon class="cls-1" points="123.52 2.91 244.7 74.34 123.52 144.07 4.89 73.49 123.52 2.91"/><line class="cls-1" x1="123.52" y1="229.68" x2="3.77" y2="157.98"/><line class="cls-1" x1="123.52" y1="194.39" x2="4.89" y2="123.8"/><line class="cls-1" x1="2.53" y1="73.48" x2="2.53" y2="210.02"/><line class="cls-1" x1="123.52" y1="144.07" x2="123.52" y2="280.61"/><polyline class="cls-1" points="247.11 74.34 244.53 210.02 123.35 280.61 1.49 208.04"/><line class="cls-1" x1="123.52" y1="194.39" x2="3.49" y2="122.97"/><line class="cls-1" x1="123.52" y1="194.39" x2="244.53" y2="122.39"/><line class="cls-1" x1="123.52" y1="229.68" x2="244.53" y2="157.68"/><line class="cls-1" x1="47.88" y1="99.07" x2="47.88" y2="149.55"/><line class="cls-1" x1="47.88" y1="184.66" x2="47.88" y2="235.7"/><line class="cls-1" x1="79.3" y1="117.82" x2="79.3" y2="168.07"/><line class="cls-1" x1="79.3" y1="203.37" x2="79.3" y2="254.8"/><line class="cls-1" x1="169.3" y1="117.82" x2="169.3" y2="253.49"/><line class="cls-1" x1="200.91" y1="99.4" x2="200.91" y2="147.49"/><line class="cls-1" x1="200.91" y1="183.63" x2="200.91" y2="235.73"/><line class="cls-1" x1="79.3" y1="117.82" x2="167.7" y2="28.95"/><line class="cls-1" x1="200.91" y1="99.4" x2="47.88" y2="47.91"/><line class="cls-1" x1="169.3" y1="117.82" x2="80.08" y2="28.75"/><line class="cls-1" x1="47.88" y1="99.07" x2="199.84" y2="47.9"/></g></g></svg>