<svg xmlns="http://www.w3.org/2000/svg" viewBox="0 0 264.13 284.21"><defs><style>.cls-1{fill:none;stroke:#c1c1c1;stroke-miterlimit:10;stroke-width:5px;}</style></defs><g id="Layer_2" data-name="Layer 2"><g id="Layer_1-2" data-name="Layer 1"><path class="cls-1" d="M129.32,2.53a.08.08,0,0,0-.14.05V191.44c0,31.44.86,58.77.86,90.19a.08.08,0,0,0,.14.06c44.09-46.77,87.33-89.45,131.43-136.22a.11.11,0,0,0,0-.11Z"/><path class="cls-1" d="M130.51,2.5,43.64,96.69,3.14,140.6a2.45,2.45,0,0,0,0,3.3q41.34,44.81,82.66,89.62c14.9,16.16,29.81,32,44.71,48.19"/><line class="cls-1" x1="43.64" y1="96.69" x2="130.51" y2="188.84"/><line class="cls-1" x1="219.76" y1="98.44" x2="130.51" y2="188.84"/><line class="cls-1" x1="176.23" y1="51.65" x2="130.51" y2="95.48"/><line class="cls-1" x1="87.07" y1="49.6" x2="130.51" y2="95.48"/><line class="cls-1" x1="85.8" y1="233.52" x2="87.07" y2="49.6"/><line class="cls-1" x1="43.9" y1="188.09" x2="130.51" y2="95.48"/><line class="cls-1" x1="219.75" y1="187.74" x2="130.51" y2="95.48"/><line class="cls-1" x1="175.13" y1="234.86" x2="130.51" y2="191.1"/><line class="cls-1" x1="85.8" y1="233.52" x2="130.51" y2="191.1"/><line class="cls-1" x1="42.12" y1="186.16" x2="43.64" y2="96.69"/><line class="cls-1" x1="219.76" y1="98.44" x2="219.75" y2="187.74"/><line class="cls-1" x1="176.23" y1="51.65" x2="175.13" y2="142.25"/><line class="cls-1" x1="176.23" y1="142.77" x2="175.13" y2="233.37"/></g></g></svg>