<svg xmlns="http://www.w3.org/2000/svg" viewBox="0 0 249.67 283.51"><defs><style>.cls-1{fill:none;stroke:#c1c1c1;stroke-miterlimit:10;stroke-width:5px;}</style></defs><g id="Layer_2" data-name="Layer 2"><g id="Layer_1-2" data-name="Layer 1"><polygon class="cls-1" points="123.52 2.91 244.7 74.34 123.52 144.07 4.89 73.49 123.52 2.91"/><line class="cls-1" x1="123.52" y1="192.39" x2="2.53" y2="121.8"/><line class="cls-1" x1="123.52" y1="235.26" x2="2.53" y2="164.68"/><line class="cls-1" x1="2.53" y1="73.48" x2="2.53" y2="210.02"/><line class="cls-1" x1="123.52" y1="144.07" x2="123.52" y2="280.61"/><polyline class="cls-1" points="247.11 74.34 244.53 210.02 123.35 280.61 1.49 208.04"/><line class="cls-1" x1="44.88" y1="99.07" x2="44.88" y2="233.88"/><line class="cls-1" x1="83.19" y1="119" x2="82.3" y2="257.67"/><line class="cls-1" x1="166.3" y1="118.82" x2="166.3" y2="254.49"/><line class="cls-1" x1="202.69" y1="97.84" x2="202.69" y2="233.51"/><line class="cls-1" x1="167.3" y1="118.82" x2="47.92" y2="47.7"/><line class="cls-1" x1="203.79" y1="96.57" x2="84.41" y2="25.44"/><line class="cls-1" x1="43.88" y1="98.07" x2="163.7" y2="27.95"/><line class="cls-1" x1="83.19" y1="119" x2="203.01" y2="48.88"/><line class="cls-1" x1="124.52" y1="191.62" x2="245.51" y2="121.03"/><line class="cls-1" x1="124.52" y1="233.51" x2="245.51" y2="162.93"/></g></g></svg>